<svg id="timeline" xmlns="http://www.w3.org/2000/svg" width="5760" height="1080" viewBox="0 0 5760 1080">
  <defs>
    <style>
      .cline, .ccircle {
        fill: none;
        stroke: #fff;
        stroke-width: 5px;
      }

      .ccircle {
        fill: transparent;
      }

      .cline {
        stroke-linecap: round;
      }

      .ctext {
        font-size: 47px;
        fill: #fff;
        font-family: 'Lato', sans-serif;
      }

      
    </style>
  </defs>
  <title>timeline</title>
  
  <g class="line" data-name="line">
    <line class="cline" x1="585.52" y1="783.5" x2="249.48" y2="783.5"/>
    <line class="cline" x1="1308.52" y1="783.5" x2="971.48" y2="783.5"/>
    <line class="cline" x1="1745.5" y1="783.5" x2="1694.48" y2="783.5"/>
    <line class="cline" x1="1669.52" y1="783.5" x2="1333.48" y2="783.5"/>
    <line class="cline" x1="946.52" y1="783.5" x2="610.48" y2="783.5"/>
    <line class="cline" x1="224.52" y1="783.5" x2="170.5" y2="783.5"/>
    <circle id="first-bullet" class="ccircle" cx="237" cy="784" r="12.5"/>
    <circle class="ccircle" cx="598" cy="784" r="12.5"/>
    <circle class="ccircle" cx="959" cy="784" r="12.5"/>
    <circle class="ccircle" cx="1321" cy="784" r="12.5"/>
    <circle class="ccircle" cx="1682" cy="784" r="12.5"/>
  </g>
  <g class="line">
    <line class="cline" x1="2507.52" y1="783.5" x2="2171.48" y2="783.5"/>
    <line class="cline" x1="3230.52" y1="783.5" x2="2893.48" y2="783.5"/>
    <line class="cline" x1="3667.5" y1="783.5" x2="3616.48" y2="783.5"/>
    <line class="cline" x1="3591.52" y1="783.5" x2="3255.48" y2="783.5"/>
    <line class="cline" x1="2868.52" y1="783.5" x2="2532.48" y2="783.5"/>
    <line class="cline" x1="2146.52" y1="783.5" x2="2092.5" y2="783.5"/>
    <circle class="ccircle" cx="2159" cy="784" r="12.5"/>
    <circle class="ccircle" cx="2520" cy="784" r="12.5"/>
    <circle class="ccircle" cx="2881" cy="784" r="12.5"/>
    <circle class="ccircle" cx="3243" cy="784" r="12.5"/>
    <circle class="ccircle" cx="3604" cy="784" r="12.5"/>
  </g>
  <g class="line" data-name="line">
    <line class="cline" x1="4430.02" y1="783.5" x2="4093.98" y2="783.5"/>
    <line class="cline" x1="5153.02" y1="783.5" x2="4815.98" y2="783.5"/>
    <line class="cline" x1="5590" y1="783.5" x2="5538.98" y2="783.5"/>
    <line class="cline" x1="5514.02" y1="783.5" x2="5177.98" y2="783.5"/>
    <line class="cline" x1="4791.02" y1="783.5" x2="4454.98" y2="783.5"/>
    <line class="cline" x1="4069.02" y1="783.5" x2="4015" y2="783.5"/>
    <circle class="ccircle" cx="4081.5" cy="784" r="12.5"/>
    <circle class="ccircle" cx="4442.5" cy="784" r="12.5"/>
    <circle class="ccircle" cx="4803.5" cy="784" r="12.5"/>
    <circle class="ccircle" cx="5165.5" cy="784" r="12.5"/>
    <circle class="ccircle" cx="5526.5" cy="784" r="12.5"/>
  </g>
  <text id="year-template" class="ctext" x="188.21" y="847.73">2005</text>
</svg>
